<?xml version="1.0" encoding="UTF-8"?>
<svg xmlns="http://www.w3.org/2000/svg" xmlns:xlink="http://www.w3.org/1999/xlink" width="106pt" height="38pt" viewBox="0 0 106 38" version="1.1">
<g id="surface1">
<path style=" stroke:none;fill-rule:nonzero;fill:rgb(17.254902%,17.254902%,17.254902%);fill-opacity:1;" d="M 46.808594 31.371094 L 43.820312 31.371094 L 43.820312 22.300781 L 40.871094 22.300781 L 40.871094 31.371094 L 37.925781 31.371094 L 37.925781 7.128906 C 37.925781 6.351562 38.210938 5.675781 38.78125 5.101562 C 39.351562 4.523438 40.050781 4.238281 40.871094 4.238281 L 43.820312 4.238281 C 44.726562 4.238281 45.449219 4.53125 45.992188 5.121094 C 46.539062 5.710938 46.808594 6.378906 46.808594 7.128906 Z M 43.820312 19.289062 L 43.820312 8.25 C 43.820312 7.957031 43.726562 7.71875 43.539062 7.53125 C 43.355469 7.339844 43.128906 7.25 42.863281 7.25 L 41.867188 7.25 C 41.601562 7.25 41.375 7.355469 41.1875 7.570312 C 41 7.785156 40.910156 8.011719 40.910156 8.253906 L 40.910156 19.292969 L 43.820312 19.292969 Z M 43.820312 19.289062 "/>
<path style=" stroke:none;fill-rule:nonzero;fill:rgb(17.254902%,17.254902%,17.254902%);fill-opacity:1;" d="M 55.097656 31.535156 L 52.1875 31.535156 C 51.390625 31.535156 50.699219 31.265625 50.113281 30.730469 C 49.558594 30.167969 49.277344 29.484375 49.277344 28.683594 L 49.277344 25.511719 L 52.226562 25.511719 L 52.226562 27.597656 C 52.226562 27.867188 52.320312 28.105469 52.507812 28.320312 C 52.691406 28.507812 52.917969 28.601562 53.183594 28.601562 L 54.140625 28.601562 C 54.40625 28.601562 54.632812 28.507812 54.820312 28.320312 C 55.003906 28.105469 55.097656 27.867188 55.097656 27.597656 L 55.097656 20.976562 C 55.097656 20.707031 55.003906 20.441406 54.820312 20.171875 C 54.632812 19.90625 54.40625 19.730469 54.140625 19.648438 L 51.988281 19.007812 C 51.140625 18.742188 50.433594 18.3125 49.878906 17.722656 C 49.34375 17.109375 49.082031 16.414062 49.082031 15.636719 L 49.082031 7.207031 C 49.082031 6.378906 49.359375 5.683594 49.917969 5.121094 C 50.472656 4.558594 51.164062 4.277344 51.988281 4.277344 L 54.898438 4.277344 C 55.695312 4.277344 56.378906 4.558594 56.949219 5.121094 C 57.523438 5.683594 57.804688 6.378906 57.804688 7.207031 L 57.804688 10.339844 L 54.859375 10.339844 L 54.859375 8.25 C 54.859375 7.984375 54.765625 7.757812 54.578125 7.570312 C 54.394531 7.382812 54.167969 7.289062 53.902344 7.289062 L 52.945312 7.289062 C 52.679688 7.289062 52.453125 7.382812 52.265625 7.570312 C 52.078125 7.757812 51.988281 7.984375 51.988281 8.25 L 51.988281 14.675781 C 51.988281 14.941406 52.078125 15.234375 52.265625 15.558594 C 52.480469 15.851562 52.703125 16.039062 52.945312 16.117188 L 55.097656 16.800781 C 55.945312 17.070312 56.652344 17.484375 57.207031 18.046875 C 57.738281 18.632812 58.003906 19.316406 58.003906 20.09375 L 58.003906 28.683594 C 58.003906 29.484375 57.710938 30.167969 57.128906 30.730469 C 56.570312 31.265625 55.894531 31.535156 55.097656 31.535156 Z M 55.097656 31.535156 "/>
<path style=" stroke:none;fill-rule:nonzero;fill:rgb(17.254902%,17.254902%,17.254902%);fill-opacity:1;" d="M 59.585938 27.792969 L 60.5 27.792969 C 60.632812 27.792969 60.753906 27.820312 60.871094 27.867188 C 60.984375 27.917969 61.085938 27.988281 61.167969 28.078125 C 61.253906 28.167969 61.320312 28.273438 61.367188 28.394531 C 61.414062 28.515625 61.4375 28.644531 61.4375 28.78125 C 61.4375 28.976562 61.390625 29.15625 61.300781 29.3125 C 61.207031 29.46875 61.085938 29.585938 60.933594 29.664062 C 61.089844 29.742188 61.214844 29.863281 61.304688 30.019531 C 61.394531 30.175781 61.4375 30.351562 61.4375 30.539062 C 61.4375 30.679688 61.414062 30.8125 61.367188 30.929688 C 61.320312 31.050781 61.253906 31.15625 61.167969 31.246094 C 61.082031 31.332031 60.984375 31.402344 60.871094 31.453125 C 60.753906 31.507812 60.632812 31.53125 60.5 31.53125 L 59.585938 31.53125 Z M 59.796875 29.550781 L 60.5 29.550781 C 60.597656 29.550781 60.691406 29.53125 60.78125 29.488281 C 60.867188 29.449219 60.945312 29.394531 61.011719 29.324219 C 61.078125 29.253906 61.128906 29.175781 61.167969 29.082031 C 61.207031 28.988281 61.226562 28.890625 61.226562 28.785156 C 61.226562 28.679688 61.207031 28.578125 61.167969 28.484375 C 61.128906 28.390625 61.078125 28.308594 61.011719 28.238281 C 60.945312 28.167969 60.867188 28.113281 60.78125 28.074219 C 60.691406 28.035156 60.597656 28.015625 60.5 28.015625 L 59.796875 28.015625 Z M 59.796875 31.308594 L 60.5 31.308594 C 60.597656 31.308594 60.691406 31.289062 60.78125 31.25 C 60.867188 31.207031 60.945312 31.152344 61.011719 31.085938 C 61.078125 31.015625 61.128906 30.933594 61.167969 30.84375 C 61.207031 30.75 61.226562 30.648438 61.226562 30.542969 C 61.226562 30.4375 61.207031 30.339844 61.167969 30.246094 C 61.128906 30.152344 61.078125 30.070312 61.011719 30.003906 C 60.945312 29.933594 60.867188 29.875 60.78125 29.835938 C 60.691406 29.796875 60.597656 29.777344 60.5 29.777344 L 59.796875 29.777344 Z M 59.796875 31.308594 "/>
<path style=" stroke:none;fill-rule:nonzero;fill:rgb(17.254902%,17.254902%,17.254902%);fill-opacity:1;" d="M 61.648438 27.792969 L 63.507812 27.792969 L 63.507812 28.011719 L 62.691406 28.011719 L 62.691406 31.308594 L 63.507812 31.308594 L 63.507812 31.535156 L 61.648438 31.535156 L 61.648438 31.308594 L 62.472656 31.308594 L 62.472656 28.011719 L 61.648438 28.011719 Z M 61.648438 27.792969 "/>
<path style=" stroke:none;fill-rule:nonzero;fill:rgb(17.254902%,17.254902%,17.254902%);fill-opacity:1;" d="M 63.71875 27.792969 L 65.574219 27.792969 L 65.574219 28.011719 L 63.933594 28.011719 L 63.933594 29.550781 L 65.574219 29.550781 L 65.574219 29.777344 L 63.933594 29.777344 L 63.933594 31.308594 L 65.574219 31.308594 L 65.574219 31.535156 L 63.71875 31.535156 Z M 63.71875 27.792969 "/>
<path style=" stroke:none;fill-rule:nonzero;fill:rgb(17.254902%,17.254902%,17.254902%);fill-opacity:1;" d="M 65.78125 27.792969 L 65.96875 27.792969 L 67.429688 30.949219 L 67.429688 27.792969 L 67.640625 27.792969 L 67.640625 31.535156 L 67.453125 31.535156 L 65.996094 28.371094 L 65.996094 31.535156 L 65.78125 31.535156 Z M 65.78125 27.792969 "/>
<path style=" stroke:none;fill-rule:nonzero;fill:rgb(17.254902%,17.254902%,17.254902%);fill-opacity:1;" d="M 67.851562 27.792969 L 69.707031 27.792969 L 69.707031 28.011719 L 68.066406 28.011719 L 68.066406 29.550781 L 69.707031 29.550781 L 69.707031 29.777344 L 68.066406 29.777344 L 68.066406 31.308594 L 69.707031 31.308594 L 69.707031 31.535156 L 67.851562 31.535156 Z M 67.851562 27.792969 "/>
<path style=" stroke:none;fill-rule:nonzero;fill:rgb(17.254902%,17.254902%,17.254902%);fill-opacity:1;" d="M 69.914062 28.777344 C 69.914062 28.640625 69.941406 28.515625 69.988281 28.394531 C 70.035156 28.277344 70.101562 28.171875 70.1875 28.082031 C 70.273438 27.992188 70.371094 27.921875 70.484375 27.871094 C 70.601562 27.816406 70.722656 27.789062 70.855469 27.789062 C 70.984375 27.792969 71.101562 27.824219 71.214844 27.882812 C 71.324219 27.941406 71.421875 28.023438 71.503906 28.125 C 71.585938 28.226562 71.652344 28.34375 71.699219 28.480469 C 71.746094 28.621094 71.773438 28.765625 71.773438 28.917969 L 71.558594 28.84375 C 71.558594 28.730469 71.539062 28.625 71.503906 28.523438 C 71.464844 28.425781 71.414062 28.335938 71.351562 28.261719 C 71.285156 28.1875 71.210938 28.128906 71.125 28.082031 C 71.039062 28.039062 70.949219 28.011719 70.851562 28.011719 L 70.832031 28.011719 C 70.738281 28.015625 70.648438 28.035156 70.5625 28.078125 C 70.476562 28.117188 70.402344 28.171875 70.335938 28.238281 C 70.269531 28.308594 70.21875 28.386719 70.183594 28.480469 C 70.144531 28.574219 70.125 28.671875 70.125 28.777344 C 70.125 28.886719 70.144531 28.984375 70.183594 29.074219 C 70.222656 29.167969 70.273438 29.25 70.339844 29.320312 C 70.40625 29.390625 70.480469 29.445312 70.566406 29.488281 C 70.652344 29.53125 70.746094 29.550781 70.84375 29.550781 C 70.976562 29.550781 71.097656 29.578125 71.210938 29.628906 C 71.324219 29.683594 71.421875 29.753906 71.503906 29.84375 C 71.585938 29.933594 71.652344 30.035156 71.699219 30.15625 C 71.746094 30.277344 71.769531 30.40625 71.769531 30.539062 C 71.769531 30.671875 71.746094 30.796875 71.699219 30.917969 C 71.652344 31.035156 71.589844 31.140625 71.507812 31.230469 C 71.429688 31.320312 71.332031 31.394531 71.226562 31.445312 C 71.117188 31.5 70.996094 31.527344 70.871094 31.535156 L 70.832031 31.535156 C 70.707031 31.53125 70.585938 31.5 70.476562 31.441406 C 70.363281 31.382812 70.265625 31.300781 70.183594 31.199219 C 70.097656 31.101562 70.03125 30.980469 69.984375 30.847656 C 69.9375 30.710938 69.914062 30.5625 69.914062 30.40625 L 70.125 30.464844 C 70.125 30.582031 70.144531 30.6875 70.183594 30.792969 C 70.21875 30.894531 70.269531 30.980469 70.335938 31.054688 C 70.402344 31.132812 70.476562 31.191406 70.5625 31.234375 C 70.648438 31.28125 70.738281 31.304688 70.832031 31.308594 L 70.851562 31.308594 C 70.949219 31.304688 71.039062 31.285156 71.125 31.242188 C 71.210938 31.199219 71.285156 31.148438 71.351562 31.078125 C 71.414062 31.007812 71.464844 30.925781 71.503906 30.832031 C 71.539062 30.742188 71.558594 30.644531 71.558594 30.535156 C 71.558594 30.433594 71.539062 30.335938 71.503906 30.242188 C 71.464844 30.152344 71.414062 30.070312 71.351562 30.003906 C 71.285156 29.933594 71.210938 29.878906 71.125 29.839844 C 71.039062 29.796875 70.949219 29.777344 70.851562 29.773438 C 70.722656 29.773438 70.601562 29.746094 70.484375 29.695312 C 70.371094 29.644531 70.273438 29.574219 70.1875 29.484375 C 70.105469 29.394531 70.039062 29.289062 69.988281 29.167969 C 69.941406 29.042969 69.914062 28.914062 69.914062 28.777344 Z M 69.914062 28.777344 "/>
<path style=" stroke:none;fill-rule:nonzero;fill:rgb(17.254902%,17.254902%,17.254902%);fill-opacity:1;" d="M 72.964844 27.792969 L 74.824219 27.792969 L 74.824219 28.011719 L 74.007812 28.011719 L 74.007812 31.308594 L 74.824219 31.308594 L 74.824219 31.535156 L 72.964844 31.535156 L 72.964844 31.308594 L 73.789062 31.308594 L 73.789062 28.011719 L 72.964844 28.011719 Z M 72.964844 27.792969 "/>
<path style=" stroke:none;fill-rule:nonzero;fill:rgb(17.254902%,17.254902%,17.254902%);fill-opacity:1;" d="M 75.035156 27.792969 L 75.21875 27.792969 L 76.679688 30.949219 L 76.679688 27.792969 L 76.890625 27.792969 L 76.890625 31.535156 L 76.707031 31.535156 L 75.246094 28.371094 L 75.246094 31.535156 L 75.035156 31.535156 Z M 75.035156 27.792969 "/>
<path style=" stroke:none;fill-rule:nonzero;fill:rgb(17.254902%,17.254902%,17.254902%);fill-opacity:1;" d="M 77.3125 28.378906 L 77.3125 31.535156 L 77.101562 31.535156 L 77.101562 27.792969 L 77.289062 27.792969 L 78.03125 29.40625 C 78.152344 29.140625 78.277344 28.871094 78.40625 28.597656 C 78.535156 28.328125 78.660156 28.054688 78.777344 27.792969 L 78.960938 27.792969 L 78.960938 31.535156 L 78.746094 31.535156 L 78.746094 28.375 L 78.03125 29.917969 Z M 77.3125 28.378906 "/>
<path style=" stroke:none;fill-rule:nonzero;fill:rgb(17.254902%,17.254902%,17.254902%);fill-opacity:1;" d="M 81.023438 30.535156 C 81.023438 30.675781 81 30.804688 80.953125 30.921875 C 80.90625 31.042969 80.839844 31.148438 80.757812 31.238281 C 80.675781 31.328125 80.578125 31.398438 80.46875 31.449219 C 80.355469 31.503906 80.234375 31.527344 80.105469 31.535156 L 80.085938 31.535156 C 79.957031 31.53125 79.839844 31.503906 79.726562 31.449219 C 79.613281 31.398438 79.519531 31.328125 79.433594 31.238281 C 79.351562 31.148438 79.285156 31.042969 79.238281 30.921875 C 79.191406 30.804688 79.167969 30.675781 79.167969 30.535156 L 79.167969 28.78125 C 79.167969 28.648438 79.191406 28.523438 79.238281 28.402344 C 79.285156 28.28125 79.351562 28.175781 79.433594 28.085938 C 79.519531 27.992188 79.613281 27.921875 79.726562 27.871094 C 79.839844 27.820312 79.957031 27.789062 80.085938 27.789062 C 80.21875 27.789062 80.34375 27.816406 80.457031 27.867188 C 80.570312 27.917969 80.667969 27.988281 80.753906 28.078125 C 80.839844 28.164062 80.902344 28.269531 80.949219 28.390625 C 80.996094 28.515625 81.023438 28.644531 81.023438 28.78125 Z M 80.808594 28.78125 C 80.808594 28.675781 80.789062 28.574219 80.753906 28.484375 C 80.71875 28.390625 80.664062 28.308594 80.601562 28.238281 C 80.535156 28.171875 80.457031 28.117188 80.371094 28.078125 C 80.285156 28.039062 80.195312 28.015625 80.097656 28.011719 C 80 28.011719 79.90625 28.03125 79.820312 28.074219 C 79.734375 28.117188 79.65625 28.171875 79.59375 28.242188 C 79.527344 28.3125 79.476562 28.394531 79.4375 28.488281 C 79.398438 28.582031 79.378906 28.679688 79.378906 28.785156 L 79.378906 30.539062 C 79.378906 30.644531 79.398438 30.746094 79.4375 30.835938 C 79.476562 30.929688 79.527344 31.011719 79.59375 31.082031 C 79.65625 31.152344 79.734375 31.210938 79.820312 31.25 C 79.90625 31.289062 80 31.308594 80.097656 31.308594 C 80.195312 31.308594 80.285156 31.289062 80.371094 31.246094 C 80.460938 31.199219 80.535156 31.144531 80.601562 31.074219 C 80.664062 31.003906 80.71875 30.921875 80.753906 30.828125 C 80.789062 30.738281 80.808594 30.636719 80.808594 30.535156 Z M 80.808594 28.78125 "/>
<path style=" stroke:none;fill-rule:nonzero;fill:rgb(17.254902%,17.254902%,17.254902%);fill-opacity:1;" d="M 81.230469 27.792969 L 82.144531 27.792969 C 82.277344 27.792969 82.402344 27.820312 82.515625 27.867188 C 82.628906 27.917969 82.730469 27.988281 82.816406 28.078125 C 82.902344 28.167969 82.964844 28.273438 83.015625 28.394531 C 83.0625 28.515625 83.085938 28.644531 83.085938 28.78125 C 83.085938 28.976562 83.039062 29.15625 82.945312 29.3125 C 82.855469 29.46875 82.730469 29.585938 82.578125 29.664062 C 82.738281 29.742188 82.859375 29.863281 82.949219 30.019531 C 83.039062 30.175781 83.085938 30.351562 83.085938 30.539062 C 83.085938 30.679688 83.0625 30.8125 83.015625 30.929688 C 82.964844 31.050781 82.898438 31.15625 82.816406 31.246094 C 82.730469 31.332031 82.628906 31.402344 82.515625 31.453125 C 82.402344 31.507812 82.277344 31.53125 82.144531 31.53125 L 81.230469 31.53125 Z M 81.445312 29.550781 L 82.148438 29.550781 C 82.246094 29.550781 82.339844 29.53125 82.429688 29.488281 C 82.515625 29.449219 82.59375 29.394531 82.660156 29.324219 C 82.726562 29.253906 82.777344 29.175781 82.816406 29.082031 C 82.855469 28.988281 82.875 28.890625 82.875 28.785156 C 82.875 28.679688 82.855469 28.578125 82.816406 28.484375 C 82.777344 28.390625 82.726562 28.308594 82.660156 28.238281 C 82.589844 28.167969 82.515625 28.113281 82.429688 28.074219 C 82.339844 28.035156 82.246094 28.015625 82.148438 28.015625 L 81.445312 28.015625 Z M 81.445312 31.308594 L 82.148438 31.308594 C 82.246094 31.308594 82.339844 31.289062 82.429688 31.25 C 82.515625 31.207031 82.59375 31.152344 82.660156 31.085938 C 82.726562 31.015625 82.777344 30.933594 82.816406 30.84375 C 82.855469 30.75 82.875 30.648438 82.875 30.542969 C 82.875 30.4375 82.855469 30.339844 82.816406 30.246094 C 82.777344 30.152344 82.726562 30.070312 82.660156 30.003906 C 82.589844 29.933594 82.515625 29.875 82.429688 29.835938 C 82.339844 29.796875 82.246094 29.777344 82.148438 29.777344 L 81.445312 29.777344 Z M 81.445312 31.308594 "/>
<path style=" stroke:none;fill-rule:nonzero;fill:rgb(17.254902%,17.254902%,17.254902%);fill-opacity:1;" d="M 83.296875 27.792969 L 85.15625 27.792969 L 85.15625 28.011719 L 84.339844 28.011719 L 84.339844 31.308594 L 85.15625 31.308594 L 85.15625 31.535156 L 83.296875 31.535156 L 83.296875 31.308594 L 84.121094 31.308594 L 84.121094 28.011719 L 83.296875 28.011719 Z M 83.296875 27.792969 "/>
<path style=" stroke:none;fill-rule:nonzero;fill:rgb(17.254902%,17.254902%,17.254902%);fill-opacity:1;" d="M 85.367188 27.792969 L 85.578125 27.792969 L 85.578125 31.308594 L 87.222656 31.308594 L 87.222656 31.535156 L 85.363281 31.535156 L 85.363281 27.792969 Z M 85.367188 27.792969 "/>
<path style=" stroke:none;fill-rule:nonzero;fill:rgb(17.254902%,17.254902%,17.254902%);fill-opacity:1;" d="M 87.445312 27.792969 L 89.304688 27.792969 L 89.304688 28.011719 L 88.484375 28.011719 L 88.484375 31.308594 L 89.304688 31.308594 L 89.304688 31.535156 L 87.445312 31.535156 L 87.445312 31.308594 L 88.265625 31.308594 L 88.265625 28.011719 L 87.445312 28.011719 Z M 87.445312 27.792969 "/>
<path style=" stroke:none;fill-rule:nonzero;fill:rgb(17.254902%,17.254902%,17.254902%);fill-opacity:1;" d="M 90.753906 29.773438 L 90.125 29.773438 L 89.734375 31.535156 L 89.511719 31.535156 L 90.359375 27.792969 L 90.53125 27.792969 L 91.371094 31.535156 L 91.148438 31.535156 Z M 90.179688 29.550781 L 90.699219 29.550781 C 90.667969 29.414062 90.636719 29.292969 90.613281 29.175781 C 90.589844 29.0625 90.5625 28.941406 90.539062 28.824219 L 90.441406 28.382812 Z M 90.179688 29.550781 "/>
<path style=" stroke:none;fill-rule:nonzero;fill:rgb(17.254902%,17.254902%,17.254902%);fill-opacity:1;" d="M 91.578125 27.792969 L 92.464844 27.792969 C 92.59375 27.792969 92.710938 27.820312 92.820312 27.867188 C 92.929688 27.917969 93.023438 27.988281 93.109375 28.078125 C 93.191406 28.167969 93.257812 28.273438 93.304688 28.394531 C 93.351562 28.515625 93.375 28.644531 93.375 28.78125 C 93.375 28.902344 93.355469 29.019531 93.320312 29.128906 C 93.28125 29.238281 93.230469 29.335938 93.164062 29.421875 C 93.097656 29.507812 93.019531 29.578125 92.925781 29.636719 C 92.835938 29.695312 92.734375 29.734375 92.632812 29.757812 L 93.433594 31.535156 L 93.203125 31.535156 L 92.417969 29.773438 L 91.785156 29.773438 L 91.785156 31.535156 L 91.578125 31.535156 Z M 91.785156 29.550781 L 92.464844 29.550781 C 92.5625 29.550781 92.652344 29.53125 92.738281 29.488281 C 92.824219 29.449219 92.898438 29.394531 92.960938 29.324219 C 93.023438 29.253906 93.074219 29.175781 93.113281 29.082031 C 93.148438 28.988281 93.167969 28.890625 93.167969 28.785156 C 93.167969 28.679688 93.148438 28.578125 93.113281 28.484375 C 93.074219 28.390625 93.023438 28.308594 92.960938 28.238281 C 92.898438 28.167969 92.824219 28.113281 92.738281 28.074219 C 92.652344 28.03125 92.5625 28.015625 92.464844 28.015625 L 91.785156 28.015625 Z M 91.785156 29.550781 "/>
<path style=" stroke:none;fill-rule:nonzero;fill:rgb(17.254902%,17.254902%,17.254902%);fill-opacity:1;" d="M 93.644531 27.792969 L 95.503906 27.792969 L 95.503906 28.011719 L 94.6875 28.011719 L 94.6875 31.308594 L 95.503906 31.308594 L 95.503906 31.535156 L 93.644531 31.535156 L 93.644531 31.308594 L 94.46875 31.308594 L 94.46875 28.011719 L 93.644531 28.011719 Z M 93.644531 27.792969 "/>
<path style=" stroke:none;fill-rule:nonzero;fill:rgb(17.254902%,17.254902%,17.254902%);fill-opacity:1;" d="M 97.570312 30.535156 C 97.570312 30.675781 97.542969 30.804688 97.496094 30.921875 C 97.449219 31.042969 97.382812 31.148438 97.300781 31.238281 C 97.21875 31.328125 97.125 31.398438 97.011719 31.449219 C 96.898438 31.503906 96.78125 31.527344 96.648438 31.535156 L 96.628906 31.535156 C 96.503906 31.53125 96.382812 31.503906 96.273438 31.449219 C 96.160156 31.398438 96.0625 31.328125 95.980469 31.238281 C 95.894531 31.148438 95.828125 31.042969 95.78125 30.921875 C 95.734375 30.804688 95.710938 30.675781 95.710938 30.535156 L 95.710938 28.78125 C 95.710938 28.648438 95.734375 28.523438 95.78125 28.402344 C 95.828125 28.28125 95.894531 28.175781 95.980469 28.085938 C 96.0625 27.992188 96.160156 27.921875 96.273438 27.871094 C 96.382812 27.820312 96.503906 27.789062 96.628906 27.789062 C 96.765625 27.789062 96.886719 27.816406 97 27.867188 C 97.117188 27.917969 97.214844 27.988281 97.296875 28.078125 C 97.382812 28.164062 97.449219 28.269531 97.496094 28.390625 C 97.542969 28.515625 97.566406 28.644531 97.566406 28.78125 L 97.566406 30.535156 Z M 97.355469 28.78125 C 97.355469 28.675781 97.335938 28.574219 97.296875 28.484375 C 97.261719 28.390625 97.210938 28.308594 97.144531 28.238281 C 97.078125 28.171875 97.003906 28.117188 96.917969 28.078125 C 96.832031 28.039062 96.738281 28.015625 96.644531 28.011719 C 96.542969 28.011719 96.449219 28.03125 96.363281 28.074219 C 96.277344 28.117188 96.203125 28.171875 96.136719 28.242188 C 96.070312 28.3125 96.019531 28.394531 95.980469 28.488281 C 95.941406 28.582031 95.921875 28.679688 95.921875 28.785156 L 95.921875 30.539062 C 95.921875 30.644531 95.941406 30.746094 95.980469 30.835938 C 96.019531 30.929688 96.070312 31.011719 96.136719 31.082031 C 96.203125 31.152344 96.277344 31.210938 96.363281 31.25 C 96.449219 31.289062 96.542969 31.308594 96.644531 31.308594 C 96.738281 31.308594 96.828125 31.289062 96.917969 31.246094 C 97.003906 31.199219 97.078125 31.144531 97.144531 31.074219 C 97.210938 31.003906 97.261719 30.921875 97.296875 30.828125 C 97.335938 30.738281 97.355469 30.636719 97.355469 30.535156 Z M 97.355469 28.78125 "/>
<path style=" stroke:none;fill-rule:nonzero;fill:rgb(17.254902%,17.254902%,17.254902%);fill-opacity:1;" d="M 97.777344 28.777344 C 97.777344 28.640625 97.800781 28.515625 97.851562 28.394531 C 97.898438 28.277344 97.964844 28.171875 98.046875 28.082031 C 98.132812 27.992188 98.234375 27.921875 98.347656 27.871094 C 98.460938 27.816406 98.585938 27.789062 98.71875 27.789062 C 98.84375 27.792969 98.964844 27.824219 99.078125 27.882812 C 99.1875 27.941406 99.285156 28.023438 99.367188 28.125 C 99.449219 28.226562 99.515625 28.34375 99.5625 28.480469 C 99.609375 28.621094 99.632812 28.765625 99.632812 28.917969 L 99.421875 28.84375 C 99.421875 28.730469 99.402344 28.625 99.367188 28.523438 C 99.328125 28.425781 99.277344 28.335938 99.210938 28.261719 C 99.148438 28.1875 99.074219 28.128906 98.988281 28.082031 C 98.902344 28.039062 98.808594 28.011719 98.714844 28.011719 L 98.695312 28.011719 C 98.597656 28.015625 98.507812 28.035156 98.421875 28.078125 C 98.335938 28.117188 98.261719 28.171875 98.199219 28.238281 C 98.132812 28.308594 98.082031 28.386719 98.042969 28.480469 C 98.007812 28.574219 97.988281 28.671875 97.988281 28.777344 C 97.988281 28.886719 98.007812 28.984375 98.046875 29.074219 C 98.085938 29.167969 98.136719 29.25 98.203125 29.320312 C 98.269531 29.390625 98.34375 29.445312 98.429688 29.488281 C 98.515625 29.53125 98.609375 29.550781 98.707031 29.550781 C 98.835938 29.550781 98.960938 29.578125 99.074219 29.628906 C 99.183594 29.683594 99.285156 29.753906 99.367188 29.84375 C 99.449219 29.933594 99.511719 30.035156 99.558594 30.15625 C 99.609375 30.277344 99.632812 30.40625 99.632812 30.539062 C 99.632812 30.671875 99.609375 30.796875 99.5625 30.917969 C 99.515625 31.035156 99.453125 31.140625 99.371094 31.230469 C 99.292969 31.320312 99.195312 31.394531 99.085938 31.445312 C 98.980469 31.5 98.859375 31.527344 98.734375 31.535156 L 98.695312 31.535156 C 98.570312 31.53125 98.449219 31.5 98.335938 31.441406 C 98.222656 31.382812 98.128906 31.300781 98.042969 31.199219 C 97.960938 31.101562 97.894531 30.980469 97.847656 30.847656 C 97.800781 30.710938 97.777344 30.5625 97.777344 30.40625 L 97.988281 30.464844 C 97.988281 30.582031 98.007812 30.6875 98.042969 30.792969 C 98.082031 30.894531 98.132812 30.980469 98.199219 31.054688 C 98.261719 31.132812 98.335938 31.191406 98.421875 31.234375 C 98.507812 31.28125 98.597656 31.304688 98.695312 31.308594 L 98.714844 31.308594 C 98.808594 31.304688 98.902344 31.285156 98.988281 31.242188 C 99.074219 31.199219 99.148438 31.148438 99.210938 31.078125 C 99.277344 31.007812 99.328125 30.925781 99.367188 30.832031 C 99.402344 30.742188 99.421875 30.644531 99.421875 30.535156 C 99.421875 30.433594 99.402344 30.335938 99.367188 30.242188 C 99.328125 30.152344 99.277344 30.070312 99.210938 30.003906 C 99.148438 29.933594 99.074219 29.878906 98.988281 29.839844 C 98.902344 29.796875 98.808594 29.777344 98.714844 29.773438 C 98.585938 29.773438 98.460938 29.746094 98.347656 29.695312 C 98.234375 29.644531 98.132812 29.574219 98.050781 29.484375 C 97.964844 29.394531 97.902344 29.289062 97.851562 29.167969 C 97.800781 29.042969 97.777344 28.914062 97.777344 28.777344 Z M 97.777344 28.777344 "/>
<path style=" stroke:none;fill-rule:nonzero;fill:rgb(100%,80%,13.333333%);fill-opacity:1;" d="M 10.5 6.226562 L 11.484375 2.515625 L 30.957031 7.773438 L 29.96875 11.480469 Z M 10.5 6.226562 "/>
<path style=" stroke:none;fill-rule:nonzero;fill:rgb(100%,80%,13.333333%);fill-opacity:1;" d="M 1.195312 3.59375 L 4.078125 1.917969 L 18.273438 26.683594 L 15.394531 28.359375 Z M 1.195312 3.59375 "/>
<path style=" stroke:none;fill-rule:nonzero;fill:rgb(100%,80%,13.333333%);fill-opacity:1;" d="M 4.160156 5.164062 L 5.941406 2.058594 L 28.304688 15.066406 L 26.523438 18.171875 Z M 4.160156 5.164062 "/>
<path style=" stroke:none;fill-rule:nonzero;fill:rgb(100%,80%,13.333333%);fill-opacity:1;" d="M 0.589844 2.5 L 3.777344 1.640625 L 11.414062 30.359375 L 8.230469 31.21875 Z M 0.589844 2.5 "/>
<path style=" stroke:none;fill-rule:evenodd;fill:rgb(100%,80%,13.333333%);fill-opacity:1;" d="M 23.054688 0.0351562 C 23.054688 12.859375 12.730469 23.253906 0.00390625 23.253906 L 0.00390625 0.0351562 Z M 23.054688 0.0351562 "/>
<path style=" stroke:none;fill-rule:nonzero;fill:rgb(17.254902%,17.254902%,17.254902%);fill-opacity:1;" d="M 0 31.960938 L 33.621094 31.960938 L 33.621094 35.816406 L 0 35.816406 Z M 0 31.960938 "/>
<path style=" stroke:none;fill-rule:nonzero;fill:rgb(17.254902%,17.254902%,17.254902%);fill-opacity:1;" d="M 31.695312 1.21875 L 35.519531 1.21875 L 35.519531 35.085938 L 31.695312 35.085938 Z M 31.695312 1.21875 "/>
<path style=" stroke:none;fill-rule:evenodd;fill:rgb(100%,80%,13.333333%);fill-opacity:1;" d="M 101.042969 37.964844 L 101.042969 29.808594 L 103.519531 31.847656 L 106 33.886719 L 103.519531 35.925781 Z M 101.042969 37.964844 "/>
<path style=" stroke:none;fill-rule:nonzero;fill:rgb(100%,80%,13.333333%);fill-opacity:1;" d="M 32.757812 31.960938 L 101.394531 31.960938 L 101.394531 35.816406 L 32.757812 35.816406 Z M 32.757812 31.960938 "/>
<path style=" stroke:none;fill-rule:nonzero;fill:rgb(100%,80%,13.333333%);fill-opacity:1;" d="M 0.648438 3.421875 L 3.359375 0.695312 L 35.46875 33.035156 L 32.757812 35.765625 Z M 0.648438 3.421875 "/>
<path style=" stroke:none;fill-rule:nonzero;fill:rgb(17.254902%,17.254902%,17.254902%);fill-opacity:1;" d="M 0 0.0351562 L 35.519531 0.0351562 L 35.519531 3.890625 L 0 3.890625 Z M 0 0.0351562 "/>
<path style=" stroke:none;fill-rule:nonzero;fill:rgb(17.254902%,17.254902%,17.254902%);fill-opacity:1;" d="M 0 0.828125 L 3.828125 0.828125 L 3.828125 35.8125 L 0 35.8125 Z M 0 0.828125 "/>
</g>
</svg>
